# xmcd
#
# Track frame offsets:
#	150
#	12343
#	33519
#	48051
#	63892
#	75911
#	94509
#	110203
#	130613
#	148773
#	166905
#	186697
#	203570
#	220288
#	236738
#
# Disc length: 3390 seconds
#
# Revision: 1
# Processed by: cddbd v1.5.2PL0 Copyright (c) Steve Scherf et al.
# Submitted via: audiograbber 1.83.01
#
DISCID=ca0d3c0f
DTITLE=Various Artist - CB60223
DYEAR=2001
DGENRE=Karaoke
TTITLE0=Alan Jackson - Meat And Potato Man
TTITLE1=Tim McGraw - Angry All The Time
TTITLE2=Terri Clark - Getting There
TTITLE3=The Warren Brothers - It Ain't Me
TTITLE4=Neal Coty - Right Down Through The Middle Of Us
TTITLE5=Jessica Andrews - Helplessly, Hopelessly
TTITLE6=Daryl Singletary - Now And Again
TTITLE7=Jeff Carson - Real Life
TTITLE8=Chely Wright - Never Love You Enough
TTITLE9=BR549 - Too Lazy To Work, Too Nervous To Steal
TTITLE10=Rick Ferrell - Different Point Of View
TTITLE11=Steve Holy - Good Morning Beautiful
TTITLE12=Mary Chapin carpenter - This Is Me leaving You
TTITLE13=Brian McComas - Night Disappear With You
TTITLE14=Chad Brock - Tell Me How
EXTD=
EXTT0=
EXTT1=
EXTT2=
EXTT3=
EXTT4=
EXTT5=
EXTT6=
EXTT7=
EXTT8=
EXTT9=
EXTT10=
EXTT11=
EXTT12=
EXTT13=
EXTT14=
PLAYORDER=
